<svg width="20" height="20" viewBox="0 0 20 20" fill="none" xmlns="http://www.w3.org/2000/svg">
<g clip-path="url(#clip0_28_287)">
<path opacity="0.2" d="M10 0C4.46154 0 0 4.46154 0 10C0 15.5385 4.46154 20 10 20C15.5385 20 20 15.5385 20 10C20 4.46154 15.5385 0 10 0ZM15 8.07692L9.69231 13.3846C9.53846 13.5385 9.30769 13.6154 9.07692 13.6154C8.84615 13.6154 8.61539 13.5385 8.46154 13.3846L5.15385 10.0769C4.84615 9.76923 4.84615 9.15385 5.15385 8.84615C5.46154 8.53846 6.07692 8.53846 6.38462 8.84615L9.07692 11.5385L13.7692 6.84615C14.0769 6.53846 14.6923 6.53846 15 6.84615C15.3846 7.15385 15.3846 7.76923 15 8.07692Z" fill="currentColor"/>
<path d="M14.9998 8.07702L9.69208 13.3847C9.53824 13.5386 9.30747 13.6155 9.0767 13.6155C8.84593 13.6155 8.61516 13.5386 8.46131 13.3847L5.15362 10.077C4.84593 9.76933 4.84593 9.15394 5.15362 8.84625C5.46131 8.53856 6.0767 8.53856 6.38439 8.84625L9.0767 11.5386L13.769 6.84625C14.0767 6.53856 14.6921 6.53856 14.9998 6.84625C15.3844 7.15394 15.3844 7.76932 14.9998 8.07702Z" fill="currentColor"/>
</g>
<defs>
<clipPath id="clip0_28_287">
<rect width="20" height="20" fill="white"/>
</clipPath>
</defs>
</svg>
