<svg width="24" height="24" viewBox="0 0 24 24" fill="none" xmlns="http://www.w3.org/2000/svg">
  <rect opacity="0.1" width="24" height="24" rx="4.5" fill="#020F2D"/>
  <g opacity="0.6" clip-path="url(#clip0_1_1693)">
    <path d="M12.0002 11.1161L8.46101 7.57695C8.22392 7.33985 7.82483 7.3365 7.58076 7.58057C7.33498 7.82635 7.33506 8.21876 7.57713 8.46083L11.1163 12L7.57713 15.5391C7.34003 15.7762 7.33668 16.1753 7.58076 16.4194C7.82654 16.6652 8.21894 16.6651 8.46102 16.423L12.0002 12.8839L15.5393 16.423C15.7764 16.6601 16.1755 16.6635 16.4196 16.4194C16.6654 16.1736 16.6653 15.7812 16.4232 15.5392L12.8841 12L16.4232 8.46083C16.6603 8.22373 16.6637 7.82465 16.4196 7.58057C16.1738 7.33479 15.7814 7.33487 15.5393 7.57695L12.0002 11.1161Z" fill="white"/>
  </g>
  <defs>
    <clipPath id="clip0_1_1693">
      <rect width="10" height="10" fill="white" transform="translate(7 7)"/>
    </clipPath>
  </defs>
</svg>
