<svg width="20" height="20" viewBox="0 0 20 20" fill="none" xmlns="http://www.w3.org/2000/svg">
<path d="M3.43028 5.53891H15.7725C16.3407 5.53891 16.8014 5.07823 16.8014 4.50999C16.8014 3.94176 16.3407 3.48108 15.7725 3.48108H3.43028C2.86205 3.48108 2.40137 3.94176 2.40137 4.50999C2.40137 5.07823 2.86205 5.53891 3.43028 5.53891ZM15.7708 13.6611H3.43028C2.86205 13.6611 2.40137 14.1218 2.40137 14.69C2.40137 15.2582 2.86205 15.7189 3.43028 15.7189H15.7725C16.3407 15.7189 16.8014 15.2582 16.8014 14.69C16.8014 14.1218 16.3391 13.6611 15.7708 13.6611ZM3.43028 10.6289H9.60056C10.1688 10.6289 10.6295 10.1682 10.6295 9.6C10.6295 9.03176 10.1688 8.57269 9.60056 8.57269H3.43028C2.86205 8.57269 2.40137 9.03337 2.40137 9.6016C2.40137 10.1698 2.86205 10.6289 3.43028 10.6289ZM16.4514 9.03819L13.8976 7.61921C13.445 7.36881 12.8896 7.69466 12.8912 8.21152V11.0479C12.8912 11.5647 13.4466 11.8922 13.8992 11.6402L16.453 10.2212C16.9153 9.96597 16.9153 9.29662 16.4514 9.03819Z" fill="white" fill-opacity="0.7"/>
</svg>
