<svg width="14" height="14" viewBox="0 0 14 14" fill="none" xmlns="http://www.w3.org/2000/svg">
<path opacity="0.8" d="M11.6852 5.6055C11.4172 1.52445 9.90645 2.01663 9.90645 2.01663C9.90645 2.01663 7.87617 4.53089 3.14707 4.75101V8.27835C3.14707 8.27835 5.15684 8.38089 6.46387 8.75003C7.7709 9.11917 8.64863 9.32699 9.84082 10.3496C9.84082 10.3496 11.9846 10.176 11.6852 5.6055ZM1.33691 4.81117H2.62891V8.25238H1.33691V4.81117ZM5.87188 10.4973C5.36602 9.88617 5.21152 9.09867 5.21152 9.09867H3.99883C3.99883 10.3496 5.12812 11.9287 5.36738 12.2459C5.60664 12.5631 5.90605 12.4209 6.59375 12.2459C7.28008 12.0709 6.72227 11.3723 6.72227 11.3723C6.72227 11.3723 6.37773 11.1084 5.87188 10.4973Z" fill="#1E293B"/>
</svg>
