<svg width="24" height="24" viewBox="0 0 24 24" fill="none" xmlns="http://www.w3.org/2000/svg">
<mask id="mask0_31_1286" style="mask-type:alpha" maskUnits="userSpaceOnUse" x="0" y="0" width="24" height="24">
<circle cx="12" cy="12" r="12" fill="#FF060A"/>
</mask>
<g mask="url(#mask0_31_1286)">
<circle cx="12" cy="12" r="9" fill="#FF060A"/>
<path d="M17.3996 10.4305C16.8596 9.93191 16.1126 9.17051 15.5042 8.63051L15.4682 8.60531C15.4083 8.55721 15.3408 8.51949 15.2684 8.49371C13.8014 8.22011 6.97401 6.94391 6.84081 6.96011C6.80349 6.96534 6.76781 6.97887 6.73641 6.99971L6.70221 7.02671C6.6601 7.06948 6.62811 7.12115 6.60861 7.17791L6.59961 7.20131V7.32911V7.34891C7.36821 9.48911 10.403 16.5001 11.0006 18.1453C11.0366 18.2569 11.105 18.4693 11.2328 18.4801H11.2616C11.33 18.4801 11.6216 18.0949 11.6216 18.0949C11.6216 18.0949 16.8344 11.7733 17.3618 11.1001C17.4301 11.0172 17.4903 10.928 17.5418 10.8337C17.5549 10.7599 17.5488 10.684 17.5238 10.6134C17.4989 10.5427 17.4561 10.4797 17.3996 10.4305ZM12.959 11.1667L15.1838 9.32171L16.4888 10.5241L12.959 11.1667ZM12.095 11.0461L8.26461 7.90691L14.462 9.04991L12.095 11.0461ZM12.4406 11.8687L16.361 11.2369L11.879 16.6369L12.4406 11.8687ZM7.74441 8.22011L11.7746 11.6401L11.1914 16.6405L7.74441 8.22011Z" fill="white"/>
</g>
</svg>
