<svg width="24" height="24" viewBox="0 0 24 24" fill="none" xmlns="http://www.w3.org/2000/svg">
<g opacity="0.3">
<path d="M20.2993 5.45451C20.2531 5.45066 15.5806 4.96743 12.3328 2.60903C12.2346 2.5378 12.121 2.50122 11.9997 2.50122C11.8804 2.50122 11.7648 2.5378 11.6667 2.60903C8.43614 4.95395 3.7463 5.45066 3.7001 5.45451C3.40746 5.48146 3.18799 5.72596 3.18799 6.0186C3.18799 6.14759 3.19954 9.21061 4.24301 12.6491C4.861 14.6859 5.71388 16.4302 6.78237 17.8318C8.1358 19.6087 9.83385 20.8351 11.8265 21.4743C11.8823 21.4916 11.94 21.5012 11.9997 21.5012C12.0594 21.5012 12.1172 21.4916 12.1711 21.4743C14.1656 20.8351 15.8617 19.6107 17.2151 17.8318C18.2817 16.4321 19.1365 14.6898 19.7545 12.6491C20.7961 9.21061 20.8095 6.14759 20.8095 6.0186C20.8115 5.72596 20.592 5.48339 20.2993 5.45451ZM19.664 6.51723L19.6621 6.54803C19.6063 7.66659 19.4041 9.90562 18.6725 12.3218C17.3884 16.5592 15.1475 19.2545 12.0113 20.3326L11.9997 20.3365L11.9882 20.3326C8.86161 19.2564 6.62258 16.5707 5.33461 12.3487C4.56837 9.83631 4.38355 7.45481 4.33734 6.54611L4.33542 6.51531L4.3643 6.51145C5.7235 6.31316 9.18697 5.64896 11.9785 3.76994L11.9959 3.75646L12.0151 3.76994C14.8105 5.64896 18.274 6.31316 19.6332 6.51338L19.664 6.51723Z" fill="#1E293B"/>
<path d="M14.4988 8.90067L11.1336 13.3152L9.42011 11.8501C9.31807 11.7635 9.18716 11.7153 9.05239 11.7153C8.88682 11.7153 8.72895 11.7866 8.62114 11.9136C8.41899 12.1504 8.44595 12.5105 8.68467 12.7126L10.8544 14.5685C10.9545 14.6532 11.0931 14.7033 11.2317 14.7033C11.2491 14.7033 11.2664 14.7033 11.2837 14.7014C11.4377 14.686 11.5802 14.6051 11.6745 14.4819L15.4037 9.59182C15.4961 9.47053 15.5346 9.32229 15.5134 9.17213C15.4942 9.02196 15.4152 8.88912 15.2959 8.79671C15.0437 8.60419 14.6875 8.65232 14.4988 8.90067Z" fill="#1E293B"/>
</g>
</svg>
