<svg width="24" height="24" viewBox="0 0 24 24" fill="none" xmlns="http://www.w3.org/2000/svg">
<g opacity="0.3">
<path d="M19.3652 5H4.63477C3.73335 5 3 5.73333 3 6.63477V16.9853C3 17.8867 3.73333 18.62 4.63477 18.62H19.3652C20.2666 18.62 21 17.8867 21 16.9853V6.63477C21 5.73333 20.2667 5 19.3652 5ZM19.3652 6.125C19.4481 6.125 19.5263 6.14499 19.5955 6.18017L12 11.6577L4.40443 6.18029C4.47577 6.1439 4.55471 6.12495 4.63479 6.125H19.3652ZM19.3652 17.495H4.63477C4.3538 17.495 4.12501 17.2662 4.12501 16.9853V7.36578L12 13.0447L19.875 7.36559V16.9853C19.875 17.2662 19.6465 17.495 19.3652 17.495Z" fill="#1E293B"/>
</g>
</svg>
