<svg width="24" height="24" viewBox="0 0 24 24" fill="none" xmlns="http://www.w3.org/2000/svg">
<g opacity="0.3">
<path d="M19.037 9.23159H18.4026C18.4094 9.19308 18.4116 9.15306 18.4086 9.1121C18.3562 8.3961 18.1921 7.70046 17.919 7.038C17.5935 6.24846 17.1276 5.5395 16.5342 4.93083C15.9409 4.32216 15.2498 3.8442 14.4802 3.51026C13.683 3.16437 12.8366 2.98901 11.9644 2.98901C11.0922 2.98901 10.2458 3.16439 9.44864 3.51026C8.679 3.8442 7.98791 4.32216 7.39459 4.93083C6.80125 5.5395 6.33536 6.24846 6.00982 7.038C5.73667 7.70046 5.57263 8.3961 5.52015 9.1121C5.51716 9.15306 5.51941 9.19308 5.52617 9.23159H4.57552C3.61255 9.23159 2.8291 10.015 2.8291 10.978V19.2426C2.8291 20.2056 3.61255 20.989 4.57552 20.989H19.037C19.9999 20.989 20.7834 20.2056 20.7834 19.2426V10.978C20.7834 10.015 19.9999 9.23159 19.037 9.23159ZM6.70684 9.18294C6.80572 7.902 7.33951 6.71138 8.2349 5.79285C9.23108 4.7709 10.5556 4.2081 11.9644 4.2081C13.3732 4.2081 14.6977 4.77092 15.6939 5.79285C16.5893 6.71138 17.1231 7.90198 17.222 9.18294C17.2232 9.19942 17.2254 9.21564 17.2282 9.23159H6.70059C6.70343 9.21564 6.70556 9.19942 6.70684 9.18294ZM19.5107 19.2426C19.5107 19.5038 19.2982 19.7163 19.037 19.7163H4.57554C4.31434 19.7163 4.10184 19.5038 4.10184 19.2426V10.978C4.10184 10.7168 4.31434 10.5043 4.57554 10.5043H19.037C19.2982 10.5043 19.5107 10.7168 19.5107 10.978V19.2426Z" fill="#1E293B"/>
<path d="M11.879 12.489C11.3338 12.5295 10.892 12.9671 10.8468 13.5119C10.8141 13.9052 10.9845 14.2603 11.2645 14.4841C11.4571 14.6382 11.564 14.8755 11.564 15.1221V17.3039C11.564 17.508 11.7052 17.6905 11.9059 17.7276C12.1715 17.7766 12.4054 17.5713 12.4054 17.3141V15.0887C12.4054 14.8479 12.5091 14.6179 12.6923 14.4617C12.9336 14.2559 13.0866 13.9497 13.0866 13.6078C13.0866 12.9598 12.5373 12.4401 11.879 12.489Z" fill="#1E293B"/>
</g>
</svg>
