<svg width="24" height="24" viewBox="0 0 24 24" fill="none" xmlns="http://www.w3.org/2000/svg">
<g opacity="0.3">
<path d="M17.4219 20.9313C17.0872 20.9313 16.7675 20.7927 16.5287 20.6499L16.5032 20.635L12.6172 17.5398L10.8841 19.3496C10.639 19.6139 10.3342 19.9401 9.73731 19.9401H9.28327L9.60301 14.7346L15.8637 8.6551L7.75061 14.1825L3.42762 12.7052C2.85634 12.5283 2.51315 12.183 2.4897 11.7566C2.47265 11.4731 2.59628 10.9317 3.59176 10.499L3.59816 10.4968L19.6644 3.81838C20.1334 3.59456 20.6279 3.63293 20.9903 3.9207C21.2035 4.0891 21.6682 4.60283 21.4145 5.70703L18.6753 19.5969C18.5517 20.2385 18.281 20.6563 17.8717 20.8396C17.7225 20.9057 17.5711 20.9313 17.4219 20.9313ZM16.9892 19.9315C17.2173 20.0637 17.4113 20.1106 17.5242 20.0594C17.6585 19.9997 17.7736 19.7695 17.8397 19.4327L20.5789 5.52584L20.581 5.51944C20.7025 4.99932 20.5959 4.69662 20.4574 4.58578C20.3167 4.4728 20.1248 4.53888 20.0247 4.59004L20.0012 4.6007L3.92643 11.2813C3.48092 11.4753 3.35515 11.6543 3.34023 11.7055C3.35941 11.7375 3.44894 11.8206 3.68129 11.8931L3.69408 11.8973L7.62058 13.2381L16.9934 6.85599L16.9977 6.85385C17.4581 6.55542 17.9463 6.55755 18.1872 6.85812C18.3385 7.04783 18.3939 7.38677 18.0507 7.72144L18.0486 7.72357L10.4365 15.1161L10.2084 18.8252C10.2255 18.8081 10.2425 18.789 10.2617 18.7676L10.266 18.7634L12.5383 16.3887L16.9892 19.9315Z" fill="#1E293B" stroke="#1E293B" stroke-width="0.105556"/>
</g>
</svg>
