<svg width="24" height="24" viewBox="0 0 24 24" fill="none" xmlns="http://www.w3.org/2000/svg">
<g opacity="0.3">
<path d="M11.9999 12.6281C9.36795 12.6281 7.23421 10.4732 7.23421 7.8145C7.23421 5.15584 9.36795 3 11.9999 3C14.6319 3 16.7656 5.15492 16.7656 7.8145C16.7656 10.4722 14.6319 12.6281 11.9999 12.6281ZM11.9999 11.372C13.9449 11.372 15.5224 9.77879 15.5224 7.8145C15.5224 5.84929 13.9449 4.25612 11.9999 4.25612C10.0549 4.25612 8.47743 5.84929 8.47743 7.8145C8.47743 9.77879 10.0549 11.372 11.9999 11.372ZM11.9999 21C8.9959 21 7.78952 20.9475 6.59142 20.6805C4.87945 20.2992 3.91895 19.4446 3.91895 17.9804C3.91895 15.1615 7.58231 13.0462 11.9999 13.0462C16.4175 13.0462 20.0809 15.1615 20.0809 17.9804C20.0809 19.4446 19.1204 20.2992 17.4084 20.6805C16.2103 20.9475 15.0039 21 11.9999 21ZM11.9999 19.7439C17.3016 19.7439 18.8376 19.4013 18.8376 17.9804C18.8376 16.0428 15.8217 14.3023 11.9999 14.3023C8.17814 14.3023 5.16217 16.0428 5.16217 17.9804C5.16217 19.4013 6.69824 19.7439 11.9999 19.7439Z" fill="#1E293B"/>
</g>
</svg>
