<?xml version="1.0" standalone="no"?><!DOCTYPE svg PUBLIC "-//W3C//DTD SVG 1.1//EN" "http://www.w3.org/Graphics/SVG/1.1/DTD/svg11.dtd"><svg t="1776748267724" class="icon" viewBox="0 0 1024 1024" version="1.1" xmlns="http://www.w3.org/2000/svg" p-id="5827" width="40" height="40" xmlns:xlink="http://www.w3.org/1999/xlink"><path d="M512 512m-512 0a512 512 0 1 0 1024 0 512 512 0 1 0-1024 0Z" fill="#3B53AF" p-id="5828"></path><path d="M872 608a16 16 0 0 1 16 16A296 296 0 0 1 592 920a16 16 0 1 1 0-32A264 264 0 0 0 856 624a16 16 0 0 1 16-16z" fill="#25BCBD" p-id="5829"></path><path d="M616 848h-112a56 56 0 0 0 0 112h112a56 56 0 0 0 0-112z" fill="#25BCBD" p-id="5830"></path><path d="M504 880h112a24 24 0 1 1 0 48h-112a24 24 0 1 1 0-48z" fill="#FFFFFF" p-id="5831"></path><path d="M512 512m-288 0a288 288 0 1 0 576 0 288 288 0 1 0-576 0Z" fill="#FFFFFF" p-id="5832"></path><path d="M512 112c217.6 0 394.656 173.76 399.872 390.144L912 512h-32C880 308.768 715.232 144 512 144 311.872 144 149.088 303.744 144.128 502.656L144 512H112C112 291.072 291.072 112 512 112z" fill="#25BCBD" p-id="5833"></path><path d="M528 202.016v171.968h-32V202.048z" fill="#FFFFFF" p-id="5834"></path><path d="M512 144m-64 0a64 64 0 1 0 128 0 64 64 0 1 0-128 0Z" fill="#FFFFFF" p-id="5835"></path><path d="M136 400A56 56 0 0 0 80 456v144a56 56 0 0 0 112 0v-144A56 56 0 0 0 136 400z" fill="#25BCBD" p-id="5836"></path><path d="M136 432a24 24 0 0 1 24 24v144a24 24 0 1 1-48 0v-144a24 24 0 0 1 24-24z" fill="#FFFFFF" p-id="5837"></path><path d="M672 408h-320c-22.08 0-40 17.92-40 40v96c0 22.08 17.92 40 40 40h320c22.08 0 40-17.92 40-40v-96c0-22.08-17.92-40-40-40z" fill="#25BCBD" p-id="5838"></path><path d="M352 424h320a24 24 0 0 1 24 24v96a24 24 0 0 1-24 24h-320a24 24 0 0 1-24-24v-96a24 24 0 0 1 24-24z" fill="#3B53AF" p-id="5839"></path><path d="M416 464m16 0l0 0q16 0 16 16l0 32q0 16-16 16l0 0q-16 0-16-16l0-32q0-16 16-16Z" fill="#FFFFFF" p-id="5840"></path><path d="M576 464m16 0l0 0q16 0 16 16l0 32q0 16-16 16l0 0q-16 0-16-16l0-32q0-16 16-16Z" fill="#FFFFFF" p-id="5841"></path><path d="M888 400a56 56 0 0 0-56 56v144a56 56 0 0 0 112 0v-144A56 56 0 0 0 888 400z" fill="#25BCBD" p-id="5842"></path><path d="M888 432a24 24 0 0 1 24 24v144a24 24 0 1 1-48 0v-144a24 24 0 0 1 24-24z" fill="#FFFFFF" p-id="5843"></path></svg>