<?xml version="1.0" standalone="no"?><!DOCTYPE svg PUBLIC "-//W3C//DTD SVG 1.1//EN" "http://www.w3.org/Graphics/SVG/1.1/DTD/svg11.dtd"><svg t="1776747994391" class="icon" viewBox="0 0 1024 1024" version="1.1" xmlns="http://www.w3.org/2000/svg" p-id="5285" xmlns:xlink="http://www.w3.org/1999/xlink" width="32" height="32"><path d="M134.736842 107.789474m107.789474 0l538.947368 0q107.789474 0 107.789474 107.789473l0 323.368421q0 107.789474-107.789474 107.789474l-538.947368 0q-107.789474 0-107.789474-107.789474l0-323.368421q0-107.789474 107.789474-107.789473Z" fill="#1D90FF" p-id="5286"></path><path d="M659.941053 646.736842h-296.421053C269.473684 754.526316 269.473684 943.157895 512 943.157895s242.526316-188.631579 147.941053-296.421053z" fill="#1D90FF" p-id="5287"></path><path d="M269.473684 215.578947m134.736842 0l215.578948 0q134.736842 0 134.736842 134.736842l0 0q0 134.736842-134.736842 134.736843l-215.578948 0q-134.736842 0-134.736842-134.736843l0 0q0-134.736842 134.736842-134.736842Z" p-id="5288"></path><path d="M456.218947 370.526316a20.48 20.48 0 0 1-19.671579-15.090527 33.414737 33.414737 0 0 0-64.673684 0 20.210526 20.210526 0 0 1-39.343158-10.24 74.105263 74.105263 0 0 1 143.36 0 20.48 20.48 0 0 1-14.551579 24.791579zM671.797895 370.526316a20.48 20.48 0 0 1-19.671579-15.090527 33.414737 33.414737 0 0 0-64.673684 0 20.210526 20.210526 0 0 1-39.343158-10.24 74.105263 74.105263 0 0 1 143.36 0 20.48 20.48 0 0 1-14.551579 24.791579zM565.894737 512a53.894737 53.894737 0 0 1-107.789474 0z" fill="#FFFFFF" p-id="5289"></path><path d="M646.736842 525.473684a40.421053 13.473684 0 1 0 80.842105 0 40.421053 13.473684 0 1 0-80.842105 0Z" fill="#EDA6BB" p-id="5290"></path><path d="M296.421053 525.473684a40.421053 13.473684 0 1 0 80.842105 0 40.421053 13.473684 0 1 0-80.842105 0Z" fill="#EDA6BB" p-id="5291"></path><path d="M346.273684 646.736842C269.473684 673.684211 161.684211 754.526316 188.631579 808.421053s157.642105-161.684211 157.642105-161.684211zM677.726316 646.736842C754.526316 673.684211 862.315789 754.526316 835.368421 808.421053s-157.642105-161.684211-157.642105-161.684211z" fill="#1D90FF" p-id="5292"></path><path d="M512 943.157895a253.035789 253.035789 0 0 0 147.671579-37.726316C639.191579 808.421053 563.469474 808.421053 512 808.421053s-127.191579 0-147.671579 97.010526A253.035789 253.035789 0 0 0 512 943.157895z" p-id="5293"></path></svg>