<svg width="24" height="24" viewBox="0 0 24 24" fill="none" xmlns="http://www.w3.org/2000/svg">
<path d="M14.7 17.4844C14.475 16.95 13.7438 16.0219 12.5344 14.7281C12.1969 14.3906 12.225 14.1094 12.3375 13.35V13.2656C12.4219 12.7312 12.5625 12.4219 14.3625 12.1406C15.2906 12 15.5156 12.3656 15.8531 12.8719C15.8813 12.9281 15.9375 12.9844 15.9656 13.0406C16.275 13.4906 16.5281 13.6031 16.8656 13.7719C17.0344 13.8562 17.2312 13.9406 17.4844 14.0813C18.1031 14.4469 18.1031 14.8406 18.1031 15.7406V15.8531C18.1031 17.2875 17.5687 18.0469 17.3719 18.3C16.5844 18.975 15.6844 19.5094 14.7 19.8469C15.2062 18.8906 14.8406 17.7937 14.7 17.4844ZM12 3.73125C13.2937 3.73125 14.5031 4.0125 15.5719 4.54688C14.9812 4.9125 14.1094 5.50312 13.7719 6.00937C13.6312 6.17812 13.5187 6.34687 13.4344 6.51562C13.0969 7.02187 12.9281 7.275 12.6188 7.30312C12.45 7.33125 12.2531 7.30312 12.0281 7.30312C11.4375 7.275 10.5938 7.21875 10.3406 7.92188C10.1719 8.37187 10.1437 9.60938 10.6781 10.2281C10.7625 10.3406 10.7906 10.5094 10.7344 10.7344C10.65 11.0156 10.5094 11.1844 10.4531 11.2125C10.3688 11.1562 10.1719 10.9313 10.0594 10.7906C9.75 10.425 9.38438 10.0031 8.87812 9.8625C8.70937 9.80625 8.5125 9.77812 8.31562 9.72187C7.78125 9.60938 7.19062 9.49687 7.05 9.1875C6.9375 8.9625 6.9375 8.68125 6.9375 8.34375C6.9375 7.95 6.9375 7.5 6.74063 7.05C6.57188 6.65625 6.2625 6.45937 5.95312 6.34687C7.44375 4.74375 9.60938 3.73125 12 3.73125ZM3 12C3 16.9781 7.02187 21 12 21C16.9781 21 21 16.9781 21 12C21 7.02187 16.9781 3 12 3C7.02187 3 3 7.02187 3 12Z" fill="white" fill-opacity="0.7"/>
</svg>
