<svg width="24" height="24" viewBox="0 0 24 24" fill="none" xmlns="http://www.w3.org/2000/svg">
<path d="M12 3C7.02823 3 3 7.02823 3 12C3 16.9718 7.02823 21 12 21C16.9718 21 21 16.9718 21 12C21 7.02823 16.9718 3 12 3ZM16.4202 9.16573L14.9431 16.1262C14.8343 16.6198 14.5403 16.7395 14.1302 16.5073L11.8802 14.8488L10.7952 15.894C10.6754 16.0137 10.5738 16.1153 10.3415 16.1153L10.5012 13.8254L14.671 10.0585C14.8524 9.89879 14.631 9.80806 14.3915 9.96774L9.23831 13.2121L7.01734 12.519C6.53468 12.3665 6.52379 12.0363 7.11895 11.804L15.796 8.45806C16.1988 8.3129 16.5508 8.55605 16.4202 9.16573Z" fill="white" fill-opacity="0.7"/>
</svg>
