<svg width="24" height="24" viewBox="0 0 24 24" fill="none" xmlns="http://www.w3.org/2000/svg">
<mask id="mask0_17_491" style="mask-type:alpha" maskUnits="userSpaceOnUse" x="0" y="0" width="24" height="24">
<circle cx="12" cy="12" r="12" fill="#D9D9D9"/>
</mask>
<g mask="url(#mask0_17_491)">
<circle cx="12" cy="12" r="9" fill="#50AF95"/>
<path fill-rule="evenodd" clip-rule="evenodd" d="M7.77861 7.19748L5.34983 12.3487C5.34059 12.3679 5.33766 12.3895 5.34147 12.4105C5.34528 12.4314 5.35564 12.4506 5.37102 12.4652L11.9306 18.8119C11.9492 18.8299 11.974 18.84 11.9998 18.84C12.0257 18.84 12.0505 18.8299 12.0691 18.8119L18.6287 12.4656C18.644 12.451 18.6544 12.4318 18.6582 12.4109C18.662 12.3899 18.6591 12.3683 18.6499 12.3491L16.2211 7.19787C16.2132 7.18057 16.2006 7.16592 16.1848 7.15566C16.1689 7.1454 16.1504 7.13997 16.1316 7.14002H7.86887C7.84994 7.13978 7.83135 7.14508 7.81533 7.15528C7.79931 7.16547 7.78656 7.18013 7.77861 7.19748Z" fill="white"/>
<path fill-rule="evenodd" clip-rule="evenodd" d="M12.8422 12.9207C12.7952 12.9242 12.5521 12.939 12.0099 12.939C11.5786 12.939 11.2724 12.9258 11.165 12.9207C9.4983 12.8463 8.25428 12.5518 8.25428 12.1993C8.25428 11.8468 9.4983 11.5527 11.165 11.4771V12.6274C11.274 12.6354 11.586 12.6541 12.0173 12.6541C12.5348 12.6541 12.794 12.6322 12.8406 12.6278V11.4779C14.5038 11.5531 15.7451 11.8476 15.7451 12.1993C15.7451 12.551 14.5042 12.8455 12.8406 12.9203L12.8422 12.9207ZM12.8422 11.359V10.3297H15.1632V8.76001H8.84394V10.3297H11.1646V11.3586C9.27835 11.4465 7.85986 11.8257 7.85986 12.2801C7.85986 12.7345 9.27835 13.1132 11.1646 13.2016V16.5H12.8418V13.2004C14.7237 13.1124 16.1399 12.7337 16.1399 12.2797C16.1399 11.8257 14.7249 11.4469 12.8418 11.3586L12.8422 11.359Z" fill="#50AF95"/>
</g>
</svg>
