<svg width="20" height="20" viewBox="0 0 20 20" fill="none" xmlns="http://www.w3.org/2000/svg">
<path d="M10 18C14.4183 18 18 14.4183 18 10C18 5.58172 14.4183 2 10 2C5.58172 2 2 5.58172 2 10C2 14.4183 5.58172 18 10 18Z" stroke="currentColor" stroke-width="2" stroke-linecap="round" stroke-linejoin="round"/>
<path d="M7.5 8C7.5 7.17157 8.17157 6.5 9 6.5H11C11.8284 6.5 12.5 7.17157 12.5 8V9C12.5 9.82843 11.8284 10.5 11 10.5H9C8.17157 10.5 7.5 9.82843 7.5 9V8Z" fill="currentColor"/>
<path d="M10 10.5V12.5" stroke="currentColor" stroke-width="2" stroke-linecap="round" stroke-linejoin="round"/>
<path d="M10 14.5H10.01" stroke="currentColor" stroke-width="2" stroke-linecap="round" stroke-linejoin="round"/>
</svg>
