<svg width="56" height="56" viewBox="0 0 56 56" fill="none" xmlns="http://www.w3.org/2000/svg">
<rect width="56" height="56" rx="28" fill="#F3E8FF"/>
<path d="M23.8671 21.3218C23.5246 20.9793 23.0109 20.9793 22.6684 21.3218L16.5039 27.3151C16.1615 27.6576 16.1615 28.1713 16.5039 28.5137L22.4972 34.507C22.8397 34.8495 23.3534 34.8495 23.6959 34.507C24.0383 34.1646 24.0383 33.6508 23.6959 33.3084L18.3875 28L23.8671 22.5205C24.0383 22.178 24.0383 21.6643 23.8671 21.3218ZM30.0316 21.3218C29.6892 21.3218 29.1754 21.493 29.0042 22.0067L25.9219 33.6508C25.7507 34.1646 26.0932 34.507 26.6069 34.6783C27.1206 34.8495 27.4631 34.507 27.6343 33.9933L30.7166 22.3492C30.8878 22.0067 30.5453 21.493 30.0316 21.3218ZM40.1346 27.3151L34.1413 21.3218C33.7988 20.9793 33.2851 20.9793 32.9427 21.3218C32.6002 21.6643 32.6002 22.178 32.9427 22.5205L38.251 28L32.7714 33.4796C32.4289 33.8221 32.4289 34.3358 32.7714 34.6783C33.1139 35.0207 33.6276 35.0207 33.9701 34.6783L39.9634 28.685C40.3058 28.3425 40.3058 27.6576 40.1346 27.3151Z" fill="#9333EA"/>
</svg>
