<svg width="56" height="56" viewBox="0 0 56 56" fill="none" xmlns="http://www.w3.org/2000/svg">
<rect width="56" height="56" rx="28" fill="#FFEDD5"/>
<path d="M38.1745 27.7905C36.9977 26.4856 35.3779 25.6647 33.6298 25.4873L32.739 25.4239L33.3397 24.7147C33.5419 24.3432 33.587 23.9388 33.6346 23.5111L33.6415 23.4548L33.6645 20.8726C33.6645 20.5097 33.5798 20.1951 33.3905 19.852L33.3857 19.8433L33.3316 19.6794L33.3444 19.6474C33.4282 19.438 33.4602 19.2864 33.4602 19.109C33.4602 18.6379 33.2137 18.1967 32.7277 17.7989C32.2667 17.4223 31.6024 17.0903 30.7535 16.8118C29.1745 16.2958 27.0245 16 24.8529 16C22.6813 16 20.531 16.2958 18.9529 16.8115C18.1028 17.0888 17.439 17.4205 16.9787 17.7986C16.4926 18.1973 16.2459 18.6361 16.2459 19.1087C16.243 19.2924 16.2815 19.4743 16.3583 19.6411L16.3754 19.6761L16.3195 19.8448L16.3153 19.8526C16.1253 20.1966 16.0413 20.5106 16.0413 20.8744V23.4617C16.0466 23.9027 16.1975 24.3297 16.4705 24.6761L16.5103 24.7276L16.355 24.9878C16.1457 25.3707 16.041 25.7179 16.041 26.049V28.6364C16.041 29.0201 16.1663 29.4096 16.4358 29.8607L16.469 29.9151L16.312 30.1266C16.1005 30.5076 16 30.8531 16 31.183V33.7698C16 34.843 16.8973 35.8471 18.5287 36.5988C20.1828 37.3612 22.4142 37.7809 24.8122 37.7809C25.8169 37.7809 27.7348 37.5646 27.754 37.5622L27.801 37.5569L27.8339 37.5907C28.4798 38.2611 29.2517 38.7973 30.1053 39.1688C30.9875 39.5547 31.9401 39.7533 32.9029 39.7521C36.816 39.7521 39.9994 36.5515 39.9994 32.6197C40.022 30.8378 39.3703 29.1132 38.1748 27.7917L38.1745 27.7905ZM19.4871 17.9688C20.9213 17.5294 22.8407 17.2865 24.8939 17.2865C29.2852 17.2865 32.3445 18.3762 32.3445 19.3534C32.3445 19.8355 31.6 20.3404 30.3004 20.7386C28.8676 21.1792 26.9467 21.4208 24.8939 21.4208C20.5029 21.4208 17.4426 20.3318 17.4426 19.354C17.4426 18.8721 18.1877 18.3669 19.4871 17.9688ZM17.2793 21.067L17.4399 21.2133C18.0633 21.7837 19.1242 22.2551 20.5071 22.5769C21.7986 22.8778 23.3014 23.0367 24.8529 23.0367C26.4044 23.0367 27.9071 22.8781 29.1981 22.5769C30.5809 22.2551 31.6422 21.7837 32.2658 21.2133L32.4262 21.067V23.4198C32.4262 24.2047 31.6461 25.0072 30.286 25.6225C28.8377 26.277 26.9081 26.6374 24.8529 26.6374C22.7977 26.6374 20.8684 26.2785 19.4198 25.6225C18.0603 25.0081 17.2793 24.2053 17.2793 23.4198V21.067ZM27.4277 28.1464L27.2993 28.3223C26.7254 29.1047 26.3274 30.0021 26.1328 30.9527C26.1205 31.023 26.1062 31.0969 26.0903 31.1738C26.052 31.3634 26.0122 31.5605 26.0122 31.7564V31.8522H25.9159C25.7757 31.8522 25.6225 31.8623 25.4729 31.8725C25.3234 31.8827 25.1637 31.8934 25.0171 31.8934C22.9598 31.8934 21.023 31.5345 19.5639 30.8788C18.1907 30.263 17.4031 29.4604 17.4031 28.6753L17.3583 25.9799L17.5249 26.143C18.2009 26.801 19.2382 27.3538 20.5247 27.7366C21.8345 28.1255 23.3741 28.3349 24.9776 28.3349C25.7484 28.3349 26.4935 28.2517 27.2138 28.1704L27.4277 28.1464ZM27.1115 36.2455C26.3891 36.3306 25.6622 36.372 24.9348 36.3694C22.8536 36.3694 20.9064 36.0703 19.45 35.5259C18.0702 35.0099 17.2784 34.3246 17.2784 33.6441V31.4343L17.4343 31.5581C18.8473 32.6855 21.7188 33.3863 24.9339 33.3863C25.2597 33.3863 25.5408 33.3863 25.8612 33.3459L25.953 33.3343L25.968 33.424C26.0915 34.167 26.3347 34.8463 26.6915 35.4439L26.6948 35.4505C26.8031 35.6683 26.9491 35.863 27.1671 36.0834L27.3065 36.224L27.1115 36.2455ZM37.0882 36.7355C36.5477 37.2853 35.9027 37.7214 35.1911 38.0183C34.4795 38.3151 33.7158 38.4665 32.9448 38.4638C31.3039 38.4638 29.7862 37.7971 28.6675 36.5862C28.4174 36.3344 28.2074 36.0395 28.0044 35.7547L28.002 35.7496C27.403 34.8007 27.086 33.7011 27.0882 32.579V32.538C27.0882 32.2033 27.1297 31.8662 27.1701 31.5402C27.2126 31.2447 27.296 30.9491 27.3774 30.6638V30.659C27.7261 29.6232 28.3585 28.7062 29.2029 28.0122C30.0472 27.3183 31.0694 26.8754 32.1531 26.734C32.4058 26.6921 32.6586 26.6921 32.9029 26.6921H33.1123C34.6249 26.752 36.0416 27.3921 37.1049 28.4919C38.1685 29.5861 38.7629 31.0522 38.7617 32.5781C38.7743 33.3476 38.6329 34.1119 38.3457 34.8259C38.0586 35.5399 37.6315 36.1893 37.0896 36.7358L37.0882 36.7355Z" fill="#FF7D00"/>
<path d="M35.8368 32.0495C35.7173 31.9601 35.5672 31.9217 35.4194 31.9429C35.2717 31.9642 35.1384 32.0432 35.0489 32.1626L33.8118 33.8119V28.75C33.8118 28.6008 33.7525 28.4577 33.647 28.3522C33.5415 28.2467 33.3983 28.1874 33.2491 28.1874C33.0999 28.1874 32.9568 28.2467 32.8513 28.3522C32.7458 28.4577 32.6865 28.6008 32.6865 28.75V33.8119L31.4494 32.1626C31.405 32.1035 31.3495 32.0537 31.2859 32.016C31.2223 31.9784 31.152 31.9536 31.0788 31.9432C31.0057 31.9327 30.9312 31.9368 30.8596 31.9551C30.788 31.9734 30.7208 32.0057 30.6616 32.05C30.6025 32.0943 30.5527 32.1499 30.5151 32.2134C30.4774 32.277 30.4526 32.3474 30.4422 32.4205C30.4317 32.4937 30.4358 32.5682 30.4541 32.6397C30.4724 32.7113 30.5047 32.7786 30.549 32.8377L32.799 35.8378C32.8513 35.9078 32.9192 35.9647 32.9974 36.0038C33.0755 36.043 33.1617 36.0634 33.2491 36.0634C33.3365 36.0634 33.4227 36.043 33.5009 36.0038C33.579 35.9647 33.647 35.9078 33.6993 35.8378L35.9489 32.8377C35.9934 32.7786 36.0258 32.7113 36.0443 32.6397C36.0628 32.568 36.0669 32.4934 36.0565 32.4202C36.0461 32.347 36.0213 32.2765 35.9836 32.2128C35.9459 32.1492 35.896 32.0936 35.8368 32.0492V32.0495Z" fill="#FF7D00"/>
</svg>
