<svg width="56" height="56" viewBox="0 0 56 56" fill="none" xmlns="http://www.w3.org/2000/svg">
<rect width="56" height="56" rx="28" fill="#FEE2E2"/>
<path d="M27.7653 20.2537C29.4076 20.2568 30.888 20.5954 32.3091 21.2074C33.9355 21.9079 35.3714 22.9014 36.6953 24.0666C37.8147 25.0519 38.8264 26.1394 39.7609 27.2997C40.0812 27.6974 40.0608 28.0267 39.8118 28.3957C39.1254 29.4122 38.3407 30.3468 37.4905 31.2279C36.3362 32.4242 35.057 33.4626 33.6012 34.2736C32.3604 34.965 31.0457 35.4483 29.6343 35.646C27.886 35.8908 26.1869 35.6843 24.5324 35.0774C22.7829 34.4357 21.2527 33.4332 19.8465 32.2289C18.4983 31.0744 17.3085 29.77 16.2256 28.3663C15.9304 27.9837 15.9257 27.7618 16.2066 27.3649C17.4674 25.5836 18.9692 24.0384 20.7361 22.7548C21.9039 21.9064 23.1626 21.2306 24.5389 20.784C25.6166 20.4342 26.7225 20.2574 27.7654 20.2537L27.7653 20.2537ZM33.1395 23.2896C34.6134 25.992 33.7712 29.0309 31.8371 30.6684C29.8166 32.3791 26.9613 32.5655 24.7849 31.1148C23.4769 30.243 22.6345 29.0344 22.2903 27.4962C21.9468 25.961 22.2078 24.5161 22.9887 23.1542C20.8871 24.3219 19.2089 25.9549 17.7454 27.8332C18.4125 28.6673 19.1065 29.4578 19.8543 30.1995C20.5261 30.8658 21.2368 31.4875 22.0068 32.0402C23.4007 33.0406 24.9091 33.7788 26.6127 34.0789C27.6992 34.2704 28.7844 34.27 29.8659 34.0505C31.4668 33.7257 32.8959 33.0137 34.2067 32.0617C35.7633 30.931 37.0784 29.5552 38.2155 28.0062C38.2714 27.93 38.2717 27.8821 38.2084 27.812C37.7803 27.3378 37.3664 26.8504 36.9281 26.3859C35.9495 25.3484 34.884 24.4104 33.6851 23.6313C33.5052 23.5144 33.3214 23.4033 33.1395 23.2897L33.1395 23.2896ZM23.9171 26.4497C23.944 26.5403 23.9627 26.6833 24.0267 26.8018C24.1436 27.018 24.4351 27.1067 24.7132 27.0379C24.9767 26.9726 25.125 26.77 25.1638 26.4853C25.209 26.1542 25.2487 25.8165 25.3483 25.4997C25.7323 24.2772 26.5873 23.608 27.8492 23.4482C28.2162 23.4018 28.4671 23.1261 28.4613 22.7549C28.456 22.4152 28.2405 22.2047 27.9018 22.2193C27.7706 22.2249 27.6395 22.2471 27.5096 22.2691C26.751 22.3977 26.0519 22.6698 25.4568 23.167C24.451 24.0073 24.049 25.137 23.9171 26.4497L23.9171 26.4497Z" fill="#DC2626"/>
</svg>
