<svg width="56" height="56" viewBox="0 0 56 56" fill="none" xmlns="http://www.w3.org/2000/svg">
<rect width="56" height="56" rx="28" fill="#FEF9C3"/>
<path d="M38.1538 29.8459H34.4615C33.7271 29.8459 33.0227 30.1377 32.5034 30.657C31.9841 31.1764 31.6923 31.8807 31.6923 32.6152V36.769C31.6923 37.5035 31.9841 38.2078 32.5034 38.7272C33.0227 39.2465 33.7271 39.5383 34.4615 39.5383H38.1538C38.6435 39.5383 39.113 39.3437 39.4593 38.9975C39.8055 38.6513 40 38.1817 40 37.6921V31.6921C40 31.2025 39.8055 30.7329 39.4593 30.3867C39.113 30.0405 38.6435 29.8459 38.1538 29.8459ZM34.4615 31.6921H38.1538V37.6921H34.4615C34.2167 37.6921 33.9819 37.5948 33.8088 37.4217C33.6357 37.2486 33.5385 37.0138 33.5385 36.769V32.6152C33.5385 32.494 33.5623 32.3739 33.6087 32.2619C33.6551 32.1499 33.7231 32.0482 33.8088 31.9625C33.8945 31.8767 33.9963 31.8088 34.1083 31.7624C34.2203 31.716 34.3403 31.6921 34.4615 31.6921ZM21.5385 29.8459H17.8462C17.3565 29.8459 16.8869 30.0405 16.5407 30.3867C16.1945 30.7329 16 31.2025 16 31.6921V37.6921C16 38.1817 16.1945 38.6513 16.5407 38.9975C16.8869 39.3437 17.3565 39.5383 17.8462 39.5383H21.5385C22.2729 39.5383 22.9773 39.2465 23.4966 38.7272C24.0159 38.2078 24.3077 37.5035 24.3077 36.769V32.6152C24.3077 31.8807 24.0159 31.1764 23.4966 30.657C22.9773 30.1377 22.2729 29.8459 21.5385 29.8459ZM17.8462 31.6921H21.5385C21.6597 31.6921 21.7797 31.716 21.8917 31.7624C22.0037 31.8088 22.1055 31.8767 22.1912 31.9625C22.2769 32.0482 22.3449 32.1499 22.3913 32.2619C22.4377 32.3739 22.4615 32.494 22.4615 32.6152V36.769C22.4615 37.0138 22.3643 37.2486 22.1912 37.4217C22.0181 37.5948 21.7833 37.6921 21.5385 37.6921H17.8462V31.6921Z" fill="#CA8A04"/>
<path d="M28 16.4614C34.5363 16.4614 39.892 21.752 39.9986 28.2639L40 28.4614V33.9999C40.0011 34.2394 39.909 34.47 39.7432 34.6429C39.5774 34.8158 39.3509 34.9175 39.1116 34.9264C38.8722 34.9354 38.6387 34.851 38.4604 34.691C38.2822 34.5311 38.173 34.308 38.1561 34.0691L38.1538 33.9999V28.4614C38.1538 22.8791 33.5823 18.3076 28 18.3076C22.4735 18.3076 17.9375 22.7877 17.8475 28.2943L17.8462 28.4614V33.9999C17.8472 34.2394 17.7551 34.47 17.5894 34.6429C17.4236 34.8158 17.1971 34.9175 16.9577 34.9264C16.7184 34.9354 16.4849 34.851 16.3066 34.691C16.1283 34.5311 16.0192 34.308 16.0023 34.0691L16 33.9999V28.4614C16 21.8591 21.3977 16.4614 28 16.4614Z" fill="#CA8A04"/>
<path d="M32.6153 22C32.8008 22 32.9735 22.0545 33.1179 22.1486L33.1696 22.1851C35.0319 23.5831 36.0579 25.7892 36.1087 28.2857L36.1105 28.4735L34.2644 28.4745C34.263 26.5175 33.5292 24.8334 32.1884 23.7603L32.061 23.6611C31.9062 23.5448 31.7918 23.3827 31.7342 23.1978C31.6766 23.0129 31.6785 22.8146 31.7398 22.6309C31.8012 22.4472 31.9187 22.2874 32.0758 22.1742C32.2329 22.061 32.4216 22 32.6153 22Z" fill="#CA8A04"/>
</svg>
