<svg width="56" height="56" viewBox="0 0 56 56" fill="none" xmlns="http://www.w3.org/2000/svg">
<rect width="56" height="56" rx="28" fill="#DBEAFE"/>
<path d="M28.0372 40.051C27.5933 40.051 27.1494 39.9431 26.7419 39.7287C24.0282 38.2951 17.7158 34.4715 17.7158 29.9379V22.4808C17.7158 21.0304 18.7025 19.7959 20.1149 19.4797C21.7766 19.1087 24.8385 18.2436 26.6841 16.626C27.531 15.8841 28.7913 15.8568 29.6822 16.5637C31.572 18.0612 34.5563 18.9992 36.1663 19.4234C37.5118 19.7792 38.4499 21.0015 38.4499 22.3956V29.9364C38.4499 33.8953 32.7973 37.7386 29.4283 39.677C28.995 39.9264 28.5161 40.051 28.0372 40.051ZM28.2166 17.5717C28.0266 17.5717 27.8365 17.637 27.6876 17.7693C25.6929 19.5177 22.6492 20.4709 20.4478 20.9635C19.7348 21.1231 19.2377 21.7464 19.2377 22.4808V29.9364C19.2377 33.7463 25.5257 37.3646 27.4534 38.3832C27.8365 38.5854 28.2926 38.5763 28.6712 38.3589C30.6096 37.2445 36.9311 33.3434 36.9311 29.9364V22.3956C36.9311 21.6902 36.4567 21.073 35.7787 20.8936C33.6715 20.3371 30.7403 19.3413 28.7381 17.7556C28.5903 17.6368 28.4063 17.5719 28.2166 17.5717Z" fill="#165DFF"/>
<path d="M27.1602 31.6688C26.6482 31.6688 26.1634 31.48 25.7842 31.1296L23.0306 28.5872C22.9533 28.516 22.8908 28.4301 22.8467 28.3347C22.8026 28.2392 22.7777 28.136 22.7736 28.0309C22.7694 27.9258 22.786 27.821 22.8224 27.7223C22.8588 27.6237 22.9144 27.5332 22.9858 27.456C23.0571 27.3787 23.1429 27.3162 23.2384 27.2721C23.3338 27.228 23.437 27.2032 23.5421 27.199C23.6472 27.1948 23.752 27.2114 23.8507 27.2479C23.9493 27.2843 24.0398 27.3398 24.117 27.4112L26.8706 29.9536C26.9874 30.0608 27.117 30.0704 27.1858 30.0672C27.253 30.064 27.3826 30.04 27.4882 29.9232L32.0466 24.7952C32.1877 24.6369 32.3858 24.5409 32.5975 24.5283C32.8092 24.5157 33.0173 24.5875 33.1762 24.728C33.3346 24.8691 33.4306 25.0672 33.4432 25.2789C33.4558 25.4907 33.384 25.6988 33.2434 25.8576L28.685 30.9856C28.506 31.1882 28.2882 31.3528 28.0444 31.4696C27.8006 31.5864 27.5358 31.6531 27.2658 31.6656C27.229 31.6688 27.1954 31.6688 27.1602 31.6688Z" fill="#165DFF"/>
</svg>
