<svg width="24" height="24" viewBox="0 0 24 24" fill="none" xmlns="http://www.w3.org/2000/svg">
<path d="M20.5566 13.2371C21.3439 13.2374 21.6964 14.2163 21.0996 14.7205L21.1006 14.7214L16.5596 19.1277L16.5508 19.1355C16.4654 19.2063 16.3667 19.2591 16.2607 19.2917C16.1547 19.3244 16.043 19.3355 15.9326 19.325C15.8223 19.3144 15.715 19.2823 15.6172 19.2302C15.5195 19.1782 15.4326 19.1077 15.3623 19.0222C15.2919 18.9365 15.2392 18.8373 15.207 18.7312C15.1749 18.6251 15.1638 18.5134 15.1748 18.4031C15.1858 18.2929 15.2191 18.1862 15.2715 18.0886C15.3219 17.9949 15.3893 17.911 15.4707 17.8425L18.2725 14.9207H3.94336C3.72002 14.9207 3.50559 14.8325 3.34766 14.6746C3.18972 14.5166 3.10059 14.3022 3.10059 14.0789C3.10059 13.8555 3.18971 13.6411 3.34766 13.4832C3.5056 13.3252 3.72002 13.2371 3.94336 13.2371H20.5566ZM8.75684 4.72827C8.86826 4.72619 8.9794 4.74584 9.08301 4.78687C9.18662 4.82789 9.28154 4.88877 9.36133 4.96655C9.44107 5.04432 9.50422 5.13751 9.54785 5.23999C9.5915 5.34253 9.61447 5.45277 9.61523 5.56421C9.61599 5.67563 9.59498 5.7863 9.55273 5.8894C9.51051 5.99247 9.44781 6.08595 9.36914 6.16479L9.36133 6.17261L5.98828 9.08374H20.5566C20.7799 9.08374 20.9944 9.17199 21.1523 9.32983C21.3103 9.48777 21.3994 9.70219 21.3994 9.92554C21.3994 10.1489 21.3103 10.3633 21.1523 10.5212C20.9944 10.6791 20.78 10.7673 20.5566 10.7673H3.94434C3.19908 10.7673 2.82032 9.87157 3.33984 9.33765L3.34668 9.33081L3.44727 9.44214L3.34766 9.33081L8.1709 4.9812C8.2461 4.90429 8.33507 4.84193 8.43359 4.79858C8.53548 4.75378 8.64556 4.7304 8.75684 4.72827Z" fill="#165DFF" stroke="#165DFF" stroke-width="0.3"/>
</svg>
