<svg width="13" height="13" viewBox="0 0 13 13" fill="none" xmlns="http://www.w3.org/2000/svg">
<g opacity="0.6">
<path d="M6.14706 0.5C9.27412 0.5 11.7941 3.02 11.7941 6.14706C11.7941 9.27412 9.27412 11.7941 6.14706 11.7941C3.02 11.7941 0.5 9.27412 0.5 6.14706C0.5 3.02 3.02 0.5 6.14706 0.5ZM6.54376 4.96259L5.16024 5.31835V5.50612C5.32824 5.63459 5.44682 5.76306 5.50612 5.90141C5.56541 6.05388 5.60282 6.27906 5.612 6.55788L5.61482 6.70188V8.40165C5.61482 8.708 5.58518 8.95506 5.53576 9.08353C5.49482 9.18235 5.39882 9.30235 5.25341 9.41318L5.16024 9.47882V9.67647H6.99835V9.47882C6.80071 9.35035 6.66235 9.20212 6.61294 9.08353C6.57906 8.97341 6.55224 8.77647 6.54518 8.52941L6.54376 8.40165V4.96259ZM6.05953 2.84776C5.98091 2.8447 5.90252 2.85806 5.82936 2.88699C5.75619 2.91591 5.68986 2.95977 5.63459 3.01576C5.57799 3.07107 5.53308 3.13719 5.50252 3.21018C5.47197 3.28318 5.45639 3.36157 5.45671 3.44071C5.45671 3.60871 5.516 3.74706 5.63459 3.86565C5.68931 3.92301 5.75532 3.96843 5.82845 3.99904C5.90158 4.02965 5.98026 4.0448 6.05953 4.04353C6.13832 4.04383 6.21637 4.02837 6.28909 3.99805C6.36181 3.96774 6.42773 3.92319 6.48298 3.86702C6.53823 3.81085 6.58169 3.7442 6.61079 3.67098C6.6399 3.59777 6.65407 3.51948 6.65247 3.44071C6.65228 3.2829 6.59225 3.13104 6.48447 3.01576C6.42867 2.96049 6.36225 2.91711 6.28921 2.88823C6.21617 2.85935 6.13804 2.84559 6.05953 2.84776Z" fill="currentColor"/>
</g>
</svg>
