<svg width="12" height="12" viewBox="0 0 12 12" fill="none" xmlns="http://www.w3.org/2000/svg">
<g clip-path="url(#clip0_28_459)">
<path d="M6 0C2.67692 0 0 2.67692 0 6C0 9.32308 2.67692 12 6 12C9.32308 12 12 9.32308 12 6C12 2.67692 9.32308 0 6 0ZM9 4.84615L5.81538 8.03077C5.72308 8.12308 5.58462 8.16923 5.44615 8.16923C5.30769 8.16923 5.16923 8.12308 5.07692 8.03077L3.09231 6.04615C2.90769 5.86154 2.90769 5.49231 3.09231 5.30769C3.27692 5.12308 3.64615 5.12308 3.83077 5.30769L5.44615 6.92308L8.26154 4.10769C8.44615 3.92308 8.81538 3.92308 9 4.10769C9.23077 4.29231 9.23077 4.66154 9 4.84615Z" fill="#36D399"/>
</g>
<defs>
<clipPath id="clip0_28_459">
<rect width="12" height="12" fill="white"/>
</clipPath>
</defs>
</svg>
