<svg width="18" height="18" viewBox="0 0 18 18" fill="none" xmlns="http://www.w3.org/2000/svg">
<path d="M9 2.25C5.27117 2.25 2.25 5.27117 2.25 9C2.25 12.7288 5.27117 15.75 9 15.75C12.7288 15.75 15.75 12.7288 15.75 9C15.75 5.27117 12.7288 2.25 9 2.25ZM12.3151 6.87429L11.2074 12.0947C11.1257 12.4648 10.9052 12.5546 10.5977 12.3804L8.91018 11.1366L8.09637 11.9205C8.00655 12.0103 7.93034 12.0865 7.75615 12.0865L7.87591 10.3691L11.0032 7.54385C11.1393 7.42409 10.9733 7.35605 10.7936 7.47581L6.92873 9.90907L5.263 9.38921C4.90101 9.2749 4.89284 9.02722 5.33921 8.85302L11.847 6.34355C12.1491 6.23468 12.4131 6.41704 12.3151 6.87429Z" fill="currentColor"/>
</svg>
