<svg width="18" height="18" viewBox="0 0 18 18" fill="none" xmlns="http://www.w3.org/2000/svg">
<path d="M15.75 4.8129C15.2533 5.03318 14.7195 5.18207 14.1592 5.24902C14.7311 4.90624 15.1702 4.36345 15.377 3.71672C14.8419 4.03408 14.2491 4.26459 13.6183 4.38883C13.113 3.85054 12.3932 3.51416 11.5966 3.51416C10.067 3.51416 8.82683 4.75423 8.82683 6.28378C8.82683 6.50086 8.85137 6.71225 8.89858 6.91497C6.59667 6.79946 4.55584 5.69681 3.1898 4.02114C2.95139 4.43021 2.81481 4.90598 2.81481 5.41357C2.81481 6.37445 3.30382 7.22221 4.04699 7.71886C3.59293 7.7045 3.1659 7.57991 2.79244 7.37247C2.79224 7.38402 2.79224 7.39562 2.79224 7.40729C2.79224 8.74923 3.74695 9.86868 5.014 10.1231C4.78157 10.1864 4.53689 10.2202 4.28426 10.2202C4.1058 10.2202 3.93227 10.2029 3.76321 10.1705C4.11563 11.2709 5.13848 12.0717 6.35047 12.094C5.40257 12.8369 4.20832 13.2797 2.9107 13.2797C2.68716 13.2797 2.46668 13.2666 2.25 13.241C3.47571 14.0268 4.93159 14.4853 6.49569 14.4853C11.5901 14.4853 14.376 10.2649 14.376 6.60496C14.376 6.48486 14.3733 6.36542 14.368 6.24666C14.9091 5.85615 15.3787 5.36833 15.75 4.8129Z" fill="currentColor"/>
</svg>
